<?xml version="1.0" encoding="UTF-8"?>
<!DOCTYPE svg PUBLIC "-//W3C//DTD SVG 1.1//EN" "http://www.w3.org/Graphics/SVG/1.1/DTD/svg11.dtd">
<svg xmlns="http://www.w3.org/2000/svg" version="1.1" width="200px" height="200px" style="shape-rendering:geometricPrecision; text-rendering:geometricPrecision; image-rendering:optimizeQuality; fill-rule:evenodd; clip-rule:evenodd" xmlns:xlink="http://www.w3.org/1999/xlink">
<g><path style="opacity:0.768" fill="#4c4c4c" d="M 101.5,36.5 C 101.5,36.8333 101.5,37.1667 101.5,37.5C 96.8333,37.5 92.1667,37.5 87.5,37.5C 87.5,37.1667 87.5,36.8333 87.5,36.5C 92.1667,35.1667 96.8333,35.1667 101.5,36.5 Z"/></g>
<g><path style="opacity:0.773" fill="#020202" d="M 87.5,37.5 C 92.1667,37.5 96.8333,37.5 101.5,37.5C 105.525,39.0204 109.525,40.8537 113.5,43C 117.036,46.2012 120.203,49.7012 123,53.5C 123.399,53.2716 123.565,52.9382 123.5,52.5C 125.856,55.7145 127.356,59.3812 128,63.5C 128.499,69.1569 128.666,74.8236 128.5,80.5C 132.437,80.2065 136.27,80.5399 140,81.5C 140.667,93.8333 140.667,106.167 140,118.5C 138.026,131.801 131.526,142.134 120.5,149.5C 120.565,149.062 120.399,148.728 120,148.5C 113.964,152.208 107.798,155.208 101.5,157.5C 97.4356,158.209 93.4356,158.209 89.5,157.5C 67.017,152.018 53.3503,138.018 48.5,115.5C 48.3335,104.162 48.5001,92.8284 49,81.5C 52.73,80.5399 56.5633,80.2065 60.5,80.5C 60.5,78.5 60.5,76.5 60.5,74.5C 61.6709,68.2164 63.1709,61.883 65,55.5C 66.6863,52.117 68.853,49.117 71.5,46.5C 76.2958,42.4382 81.6292,39.4382 87.5,37.5 Z M 103.5,50.5 C 96.8688,47.5522 90.5355,47.8856 84.5,51.5C 80.5664,53.5978 77.3997,56.5978 75,60.5C 73.6226,67.0764 73.1226,73.7431 73.5,80.5C 71.5,80.5 69.5,80.5 67.5,80.5C 65.4932,67.6451 69.1598,56.8118 78.5,48C 91.192,41.0889 103.025,42.2556 114,51.5C 119.989,60.1926 122.156,69.8593 120.5,80.5C 118.833,80.5 117.167,80.5 115.5,80.5C 116.292,72.4854 115.125,64.8187 112,57.5C 109.584,54.5766 106.75,52.2433 103.5,50.5 Z M 90.5,56.5 C 98.274,55.4682 103.774,58.4682 107,65.5C 107.499,70.4889 107.666,75.4889 107.5,80.5C 98.5,80.5 89.5,80.5 80.5,80.5C 80.309,75.1007 80.809,69.7674 82,64.5C 84.0982,60.8972 86.9315,58.2305 90.5,56.5 Z M 55.5,87.5 C 81.1667,87.5 106.833,87.5 132.5,87.5C 132.667,98.1719 132.5,108.839 132,119.5C 124.702,143.739 108.535,153.572 83.5,149C 68.4313,143.721 59.2646,133.221 56,117.5C 55.5002,107.506 55.3335,97.5056 55.5,87.5 Z M 92.5,105.5 C 98.0761,106.555 98.7428,108.889 94.5,112.5C 90.4863,110.897 89.8196,108.563 92.5,105.5 Z M 93.5,118.5 C 95.4759,119.427 95.8092,120.76 94.5,122.5C 93.5713,121.311 93.238,119.978 93.5,118.5 Z"/></g>
<g><path style="opacity:0.816" fill="#2a2a2a" d="M 87.5,36.5 C 87.5,36.8333 87.5,37.1667 87.5,37.5C 81.6292,39.4382 76.2958,42.4382 71.5,46.5C 71.5,45.8333 71.5,45.1667 71.5,44.5C 75.9676,40.2661 81.301,37.5994 87.5,36.5 Z"/></g>
<g><path style="opacity:0.11" fill="#1c1c1c" d="M 101.5,36.5 C 111.425,38.446 118.759,43.7793 123.5,52.5C 123.565,52.9382 123.399,53.2716 123,53.5C 120.203,49.7012 117.036,46.2012 113.5,43C 109.525,40.8537 105.525,39.0204 101.5,37.5C 101.5,37.1667 101.5,36.8333 101.5,36.5 Z"/></g>
<g><path style="opacity:0.449" fill="#232323" d="M 103.5,50.5 C 103.631,51.2389 103.464,51.9056 103,52.5C 97.1985,49.8606 91.3652,49.8606 85.5,52.5C 84.8933,52.3764 84.56,52.0431 84.5,51.5C 90.5355,47.8856 96.8688,47.5522 103.5,50.5 Z"/></g>
<g><path style="opacity:0.39" fill="#111111" d="M 71.5,44.5 C 71.5,45.1667 71.5,45.8333 71.5,46.5C 68.853,49.117 66.6863,52.117 65,55.5C 63.1709,61.883 61.6709,68.2164 60.5,74.5C 59.0576,62.4821 62.7242,52.4821 71.5,44.5 Z"/></g>
<g><path style="opacity:0.731" fill="#010101" d="M 92.5,97.5 C 102.311,97.8103 106.478,102.81 105,112.5C 102.395,116.915 102.228,121.582 104.5,126.5C 104.471,128.029 103.804,129.196 102.5,130C 99.6667,130.167 96.8333,130.333 94,130.5C 90.724,130.442 87.724,129.776 85,128.5C 84.4686,124.523 84.9686,120.69 86.5,117C 81.0154,108.062 83.0154,101.562 92.5,97.5 Z M 92.5,105.5 C 89.8196,108.563 90.4863,110.897 94.5,112.5C 98.7428,108.889 98.0761,106.555 92.5,105.5 Z M 93.5,118.5 C 93.238,119.978 93.5713,121.311 94.5,122.5C 95.8092,120.76 95.4759,119.427 93.5,118.5 Z"/></g>
<g><path style="opacity:0.315" fill="#1b1b1b" d="M 48.5,115.5 C 53.3503,138.018 67.017,152.018 89.5,157.5C 65.0629,154.062 51.3963,140.062 48.5,115.5 Z"/></g>
<g><path style="opacity:0.388" fill="#1c1c1c" d="M 120.5,149.5 C 115.052,154.051 108.719,156.718 101.5,157.5C 107.798,155.208 113.964,152.208 120,148.5C 120.399,148.728 120.565,149.062 120.5,149.5 Z"/></g>
</svg>
