<?xml version="1.0" encoding="UTF-8"?>
<!DOCTYPE svg PUBLIC "-//W3C//DTD SVG 1.1//EN" "http://www.w3.org/Graphics/SVG/1.1/DTD/svg11.dtd">
<svg xmlns="http://www.w3.org/2000/svg" version="1.1" width="512px" height="512px" style="shape-rendering:geometricPrecision; text-rendering:geometricPrecision; image-rendering:optimizeQuality; fill-rule:evenodd; clip-rule:evenodd" xmlns:xlink="http://www.w3.org/1999/xlink">
<g><path style="opacity:0.981" fill="#000000" d="M 404.5,94.5 C 413.263,93.2809 421.263,95.1142 428.5,100C 443,114.5 457.5,129 472,143.5C 478.55,154.09 479.217,165.09 474,176.5C 389.833,262 305,346.833 219.5,431C 207.699,437.39 196.366,436.724 185.5,429C 135.639,379.472 86.139,329.639 37,279.5C 31.8142,268.408 32.4809,257.742 39,247.5C 54.8934,230.938 71.3934,215.105 88.5,200C 98.6997,196.151 108.366,197.151 117.5,203C 146.333,231.833 175.167,260.667 204,289.5C 267.167,226.333 330.333,163.167 393.5,100C 396.99,97.588 400.657,95.7547 404.5,94.5 Z"/></g>
</svg>
