<?xml version="1.0" encoding="UTF-8"?>
<!DOCTYPE svg PUBLIC "-//W3C//DTD SVG 1.1//EN" "http://www.w3.org/Graphics/SVG/1.1/DTD/svg11.dtd">
<svg xmlns="http://www.w3.org/2000/svg" version="1.1" width="200px" height="200px" style="shape-rendering:geometricPrecision; text-rendering:geometricPrecision; image-rendering:optimizeQuality; fill-rule:evenodd; clip-rule:evenodd" xmlns:xlink="http://www.w3.org/1999/xlink">
<g><path style="opacity:1" fill="#fefefe" d="M -0.5,-0.5 C 66.1667,-0.5 132.833,-0.5 199.5,-0.5C 199.5,66.1667 199.5,132.833 199.5,199.5C 132.833,199.5 66.1667,199.5 -0.5,199.5C -0.5,132.833 -0.5,66.1667 -0.5,-0.5 Z"/></g>
<g><path style="opacity:1" fill="#0c0c0c" d="M 85.5,37.5 C 107.043,34.8447 120.876,43.8447 127,64.5C 127.499,70.1569 127.666,75.8236 127.5,81.5C 131.437,81.2065 135.27,81.5399 139,82.5C 139.667,94.1667 139.667,105.833 139,117.5C 133.853,141.986 118.853,154.986 94,156.5C 75.0323,155.53 61.3656,146.53 53,129.5C 51.5275,125.277 50.5275,120.943 50,116.5C 49.3333,105.167 49.3333,93.8333 50,82.5C 53.73,81.5399 57.5633,81.2065 61.5,81.5C 58.617,60.581 66.617,45.9143 85.5,37.5 Z"/></g>
<g><path style="opacity:1" fill="#f5f5f5" d="M 86.5,42.5 C 112.914,41.9203 124.914,54.9203 122.5,81.5C 119.833,81.5 117.167,81.5 114.5,81.5C 115.639,72.9355 114.139,64.9355 110,57.5C 103.013,50.5666 94.8468,48.7333 85.5,52C 75.1088,59.1514 71.4422,68.9848 74.5,81.5C 71.8333,81.5 69.1667,81.5 66.5,81.5C 63.4551,63.2511 70.1218,50.2511 86.5,42.5 Z"/></g>
<g><path style="opacity:1" fill="#fafafa" d="M 89.5,55.5 C 97.9992,54.0391 104.166,57.0391 108,64.5C 108.499,70.1569 108.666,75.8236 108.5,81.5C 98.8333,81.5 89.1667,81.5 79.5,81.5C 79.1392,75.4067 79.6392,69.4067 81,63.5C 83.0738,59.9231 85.9072,57.2565 89.5,55.5 Z"/></g>
<g><path style="opacity:1" fill="#fbfbfb" d="M 54.5,86.5 C 81.1667,86.5 107.833,86.5 134.5,86.5C 134.666,96.5056 134.5,106.506 134,116.5C 127.864,141.955 111.697,153.455 85.5,151C 68.2226,145.726 58.0559,134.226 55,116.5C 54.5002,106.506 54.3335,96.5056 54.5,86.5 Z"/></g>
<g><path style="opacity:1" fill="#101010" d="M 90.5,99.5 C 99.9505,98.1229 104.45,102.123 104,111.5C 102.455,113.209 101.622,115.209 101.5,117.5C 102.64,121.396 102.64,125.229 101.5,129C 96.2487,129.804 91.082,129.637 86,128.5C 85.634,124.912 86.134,121.412 87.5,118C 86.3543,114.876 85.3543,111.71 84.5,108.5C 84.9439,104.402 86.9439,101.402 90.5,99.5 Z"/></g>
<g><path style="opacity:1" fill="#eaeaea" d="M 91.5,104.5 C 97.0001,103.831 99.1667,106.165 98,111.5C 96.5362,112.459 95.7028,113.792 95.5,115.5C 96.3284,118.479 96.9951,121.479 97.5,124.5C 95.5,124.5 93.5,124.5 91.5,124.5C 91.7678,121.26 92.4345,118.094 93.5,115C 91.5859,113.24 90.2525,111.073 89.5,108.5C 89.7517,106.927 90.4183,105.594 91.5,104.5 Z"/></g>
</svg>
