<?xml version="1.0" encoding="UTF-8"?>
<svg xmlns="http://www.w3.org/2000/svg" xmlns:xlink="http://www.w3.org/1999/xlink" width="15px" height="15px" viewBox="0 0 15 15" version="1.1">
<defs>
<filter id="alpha" filterUnits="objectBoundingBox" x="0%" y="0%" width="100%" height="100%">
  <feColorMatrix type="matrix" in="SourceGraphic" values="0 0 0 0 1 0 0 0 0 1 0 0 0 0 1 0 0 0 1 0"/>
</filter>
<mask id="mask0">
  <g filter="url(#alpha)">
<rect x="0" y="0" width="15" height="15" style="fill:rgb(0%,0%,0%);fill-opacity:0.980392;stroke:none;"/>
  </g>
</mask>
<clipPath id="clip1">
  <rect x="0" y="0" width="15" height="15"/>
</clipPath>
<g id="surface5" clip-path="url(#clip1)">
<path style=" stroke:none;fill-rule:evenodd;fill:rgb(0%,0%,0%);fill-opacity:1;" d="M 11.851562 2.769531 C 12.105469 2.734375 12.339844 2.785156 12.554688 2.929688 C 12.976562 3.355469 13.402344 3.78125 13.828125 4.203125 C 14.019531 4.515625 14.039062 4.835938 13.886719 5.171875 C 11.421875 7.675781 8.9375 10.160156 6.429688 12.625 C 6.085938 12.8125 5.753906 12.792969 5.433594 12.570312 C 3.972656 11.117188 2.523438 9.65625 1.085938 8.1875 C 0.933594 7.863281 0.953125 7.550781 1.140625 7.25 C 1.609375 6.765625 2.089844 6.300781 2.59375 5.859375 C 2.890625 5.746094 3.175781 5.777344 3.441406 5.945312 C 4.285156 6.792969 5.132812 7.636719 5.976562 8.480469 C 7.828125 6.628906 9.675781 4.78125 11.527344 2.929688 C 11.628906 2.859375 11.738281 2.804688 11.851562 2.769531 Z M 11.851562 2.769531 "/>
</g>
</defs>
<g id="surface1">
<use xlink:href="#surface5" mask="url(#mask0)"/>
</g>
</svg>
